<svg width="256" height="256" viewBox="0 0 256 256" fill="none" xmlns="http://www.w3.org/2000/svg">
<path d="M205.046 131.358C205.046 143.436 197.166 154.908 183.289 163.54C169.464 172.14 150.146 177.573 128.624 177.573C107.103 177.573 87.7847 172.14 73.9597 163.54C60.0833 154.908 52.2024 143.436 52.2024 131.358C52.2024 119.28 60.0833 107.808 73.9597 99.1759C87.7847 90.5761 107.103 85.1427 128.624 85.1427C150.146 85.1427 169.464 90.5761 183.289 99.1759C197.166 107.808 205.046 119.28 205.046 131.358Z" fill="#679B9B" stroke="black" stroke-width="7"/>
<path d="M205.046 111.22C205.046 123.298 197.166 134.77 183.289 143.402C169.464 152.002 150.146 157.435 128.624 157.435C107.103 157.435 87.7847 152.002 73.9597 143.402C60.0833 134.77 52.2024 123.298 52.2024 111.22C52.2024 99.1419 60.0833 87.6699 73.9597 79.0381C87.7847 70.4383 107.103 65.0049 128.624 65.0049C150.146 65.0049 169.464 70.4383 183.289 79.0381C197.166 87.6699 205.046 99.1419 205.046 111.22Z" fill="#AACFCF" stroke="black" stroke-width="7"/>
<path d="M205.046 91.0823C205.046 103.161 197.166 114.633 183.289 123.264C169.464 131.864 150.146 137.298 128.624 137.298C107.103 137.298 87.7847 131.864 73.9597 123.264C60.0833 114.633 52.2024 103.161 52.2024 91.0823C52.2024 79.0041 60.0833 67.5321 73.9597 58.9003C87.7847 50.3005 107.103 44.8671 128.624 44.8671C150.146 44.8671 169.464 50.3005 183.289 58.9003C197.166 67.5321 205.046 79.0041 205.046 91.0823Z" fill="#FDE2E2" stroke="black" stroke-width="7"/>
<path d="M205.046 70.5561C205.046 82.5136 197.181 93.8894 183.3 102.457C169.473 110.991 150.151 116.383 128.624 116.383C107.097 116.383 87.7758 110.991 73.9493 102.457C60.0675 93.8894 52.2024 82.5136 52.2024 70.5561C52.2024 58.5986 60.0675 47.2228 73.9493 38.6552C87.7758 30.1216 107.097 24.7293 128.624 24.7293C150.151 24.7293 169.473 30.1216 183.3 38.6552C197.181 47.2228 205.046 58.5986 205.046 70.5561Z" fill="#FFB6B6" stroke="black" stroke-width="7"/>
<path d="M152.598 70.5561C152.598 73.5747 150.603 76.8578 146.213 79.5675C141.877 82.2431 135.668 84.0122 128.624 84.0122C121.581 84.0122 115.371 82.2431 111.036 79.5675C106.646 76.8578 104.651 73.5747 104.651 70.5561C104.651 67.5375 106.646 64.2544 111.036 61.5447C115.371 58.8691 121.581 57.1 128.624 57.1C135.668 57.1 141.877 58.8691 146.213 61.5447C150.603 64.2544 152.598 67.5375 152.598 70.5561Z" fill="white" stroke="black" stroke-width="7"/>
<ellipse rx="4.99512" ry="3.12195" transform="matrix(-1 0 0 1 128.624 70.5561)" fill="black"/>
<path d="M1.19207 222.556C1.30427 225.557 3.47805 228.404 8.89146 228.404C14.0524 228.404 16.7591 225.852 16.7591 222.205C16.7591 218.685 14.4311 217.241 11.514 216.68L8.73719 216.119C7.11037 215.81 6.17073 215.193 6.17073 214.184C6.17073 212.977 7.18049 212.066 9.03171 212.066C10.939 212.066 12.0049 213.104 12.1591 214.226H16.4226C16.3104 211.266 13.828 208.546 9.04573 208.546C4.61402 208.546 1.58476 210.832 1.58476 214.534C1.58476 217.704 3.63232 219.359 6.67561 219.99L9.38232 220.565C11.2616 220.957 12.2152 221.49 12.2152 222.682C12.2152 223.916 11.2055 224.842 9.07378 224.842C6.98415 224.842 5.73598 223.79 5.58171 222.556H1.19207ZM41.8118 224.155H34.1264V208.91H29.5124V228.054H41.8118V224.155ZM58.6881 228.054V208.91H54.0741V228.054H58.6881ZM80.403 208.91H72.3249V228.054H76.9249V222.163H80.3469C84.7645 222.163 87.0926 219.232 87.0926 215.572C87.0926 211.954 84.8066 208.91 80.403 208.91ZM82.4225 215.572C82.4225 217.535 81.2444 218.643 79.3371 218.643H76.9109V212.501H79.3371C81.2444 212.501 82.4225 213.58 82.4225 215.572ZM98.4013 222.556C98.5135 225.557 100.687 228.404 106.101 228.404C111.262 228.404 113.968 225.852 113.968 222.205C113.968 218.685 111.64 217.241 108.723 216.68L105.946 216.119C104.32 215.81 103.38 215.193 103.38 214.184C103.38 212.977 104.39 212.066 106.241 212.066C108.148 212.066 109.214 213.104 109.368 214.226H113.632C113.52 211.266 111.037 208.546 106.255 208.546C101.823 208.546 98.794 210.832 98.794 214.534C98.794 217.704 100.842 219.359 103.885 219.99L106.592 220.565C108.471 220.957 109.424 221.49 109.424 222.682C109.424 223.916 108.415 224.842 106.283 224.842C104.193 224.842 102.945 223.79 102.791 222.556H98.4013ZM134.954 228.054V212.739H140.171V208.91H125.137V212.739H130.354V228.054H134.954ZM160.217 208.91H152.125V228.054H156.655V221.238H159.305L162.545 228.054H167.65L163.835 220.593C165.322 219.99 167.257 218.152 167.257 215.193C167.257 211.407 164.761 208.91 160.217 208.91ZM156.655 217.942V212.416H159.53C161.227 212.416 162.517 213.384 162.517 215.221C162.517 217.045 161.283 217.942 159.488 217.942H156.655ZM192.955 224.351H184.666V220.13H192.436V216.722H184.666V212.613H192.955V208.91H180.109V228.054H192.955V224.351ZM208.934 228.054L210.182 223.692H216.114L217.362 228.054H222.257L216.114 208.91H210.504L204.334 228.054H208.934ZM213.281 213.076L215.287 220.312H211.037L213.071 213.076H213.281ZM238.292 228.054V216.203H238.502L242.569 225.137H245.276L249.301 216.203H249.525V228.054H253.677V208.91H248.95L244.028 219.695H243.873L238.951 208.91H234.197V228.054H238.292Z" fill="black"/>
</svg>
